# xmcd
#
# Track frame offsets:
#	150
#	20400
#	38422
#	53751
#	67504
#
# Disc length: 1129 seconds
# Revision: 0
# Processed by: cddbd v1.5.2PL0 Copyright (c) Steve Scherf et al.
# Submitted via: dBpowerAMP V12.0
#
DISCID=2c046705
DTITLE=Ivor S.K. - Delta Pines
DYEAR=2016
DGENRE=Blues
TTITLE0=Help Poor Me
TTITLE1=Missus Green
TTITLE2=Pelican
TTITLE3=I Like The Way
TTITLE4=Delta Pines
EXTD=
EXTT0=
EXTT1=
EXTT2=
EXTT3=
EXTT4=
PLAYORDER=
